/* XPM */
static char *d26671433459436f9019b69fc94e0803P5KiKvDAOKw9cKk0[] = {
/* columns rows colors chars-per-PIxel */
"64 64 39 1 ",
"  c #022F27",
". c #182E25",
"X c #152E25",
"o c #062F27",
"O c #1C2F26",
"+ c #1E2F25",
"@ c #192E25",
"# c #1A2F26",
"$ c #1F2F25",
"% c #8C2515",
"& c #7A2717",
"* c #1C2D24",
"= c #A8301E",
"- c #B72E1B",
"; c #922716",
": c #9D301F",
"> c #BA2F1C",
", c #AB2310",
"< c #962513",
"1 c #222D23",
"2 c #1F2F26",
"3 c #CF301C",
"4 c #E02E18",
"5 c #B42512",
"6 c #203026",
"7 c #C0301D",
"8 c #E42F19",
"9 c #B32511",
"0 c #B72612",
"q c #B62512",
"w c #AD2310",
"e c #E22E19",
"r c #BE2713",
"t c #E62F19",
"y c #DD2D18",
"u c #B22511",
"i c #EB301A",
"p c #E52F19",
"a c #EC301A",
/* PIxels */
"                                                                ",
".........XooO+@......... o#$@........... o#$@........... o#$@...",
"%%%%%%%%%&*#=-;%%%%%%%%% #:>;%%%%%%%%%%% #:>;%%%%%%%%%%% #:>;%%%",
",,,,,,,,,<12345,,,,,,,,, 6789,,,,,,,,,,, 6789,,,,,,,,,,, 6789,,,",
",,,,,,,,,<12345,,,,,,,,, 6789,,,,,,,,,,, 6789,,,,,,,,,,, 6789,,,",
"000qw,,,,<123er0000qw,,, 67tr000000qw,,, 67tr000000qw,,, 67tr000",
"888yu,,,,<123ip8888yu,,, 67ip888888yu,,, 67ip888888yu,,, 67ip888",
"aaa89,,,,<123aaaaaa89,,, 67aaaaaaaa89,,, 67aaaaaaaa89,,, 67aaaaa",
"                                                                ",
" o#$@........... o#$@........... o#$@........... o#$@...........",
" #:>;%%%%%%%%%%% #:>;%%%%%%%%%%% #:>;%%%%%%%%%%% #:>;%%%%%%%%%%%",
" 6789,,,,,,,,,,, 6789,,,,,,,,,,, 6789,,,,,,,,,,, 6789,,,,,,,,,,,",
" 6789,,,,,,,,,,, 6789,,,,,,,,,,, 6789,,,,,,,,,,, 6789,,,,,,,,,,,",
" 67tr000000qw,,, 67tr000000qw,,, 67tr000000qw,,, 67tr000000qw,,,",
" 67ip888888yu,,, 67ip888888yu,,, 67ip888888yu,,, 67ip888888yu,,,",
" 67aaaaaaaa89,,, 67aaaaaaaa89,,, 67aaaaaaaa89,,, 67aaaaaaaa89,,,",
"                                                                ",
"........ o#$@........... o#$@........... o#$@........... o#$@...",
"%%%%%%%% #:>;%%%%%%%%%%% #:>;%%%%%%%%%%% #:>;%%%%%%%%%%% #:>;%%%",
",,,,,,,, 6789,,,,,,,,,,, 6789,,,,,,,,,,, 6789,,,,,,,,,,, 6789,,,",
",,,,,,,, 6789,,,,,,,,,,, 6789,,,,,,,,,,, 6789,,,,,,,,,,, 6789,,,",
"000qw,,, 67tr000000qw,,, 67tr000000qw,,, 67tr000000qw,,, 67tr000",
"888yu,,, 67ip888888yu,,, 67ip888888yu,,, 67ip888888yu,,, 67ip888",
"aaa89,,, 67aaaaaaaa89,,, 67aaaaaaaa89,,, 67aaaaaaaa89,,, 67aaaaa",
"                                                                ",
" o#$@........... o#$@........... o#$@........... o#$@...........",
" #:>;%%%%%%%%%%% #:>;%%%%%%%%%%% #:>;%%%%%%%%%%% #:>;%%%%%%%%%%%",
" 6789,,,,,,,,,,, 6789,,,,,,,,,,, 6789,,,,,,,,,,, 6789,,,,,,,,,,,",
" 6789,,,,,,,,,,, 6789,,,,,,,,,,, 6789,,,,,,,,,,, 6789,,,,,,,,,,,",
" 67tr000000qw,,, 67tr000000qw,,, 67tr000000qw,,, 67tr000000qw,,,",
" 67ip888888yu,,, 67ip888888yu,,, 67ip888888yu,,, 67ip888888yu,,,",
" 67aaaaaaaa89,,, 67aaaaaaaa89,,, 67aaaaaaaa89,,, 67aaaaaaaa89,,,",
"                                                                ",
"........ o#$@........... o#$@........... o#$@........... o#$@...",
"%%%%%%%% #:>;%%%%%%%%%%% #:>;%%%%%%%%%%% #:>;%%%%%%%%%%% #:>;%%%",
",,,,,,,, 6789,,,,,,,,,,, 6789,,,,,,,,,,, 6789,,,,,,,,,,, 6789,,,",
",,,,,,,, 6789,,,,,,,,,,, 6789,,,,,,,,,,, 6789,,,,,,,,,,, 6789,,,",
"000qw,,, 67tr000000qw,,, 67tr000000qw,,, 67tr000000qw,,, 67tr000",
"888yu,,, 67ip888888yu,,, 67ip888888yu,,, 67ip888888yu,,, 67ip888",
"aaa89,,, 67aaaaaaaa89,,, 67aaaaaaaa89,,, 67aaaaaaaa89,,, 67aaaaa",
"                                                                ",
" o#$@........... o#$@........... o#$@........... o#$@...........",
" #:>;%%%%%%%%%%% #:>;%%%%%%%%%%% #:>;%%%%%%%%%%% #:>;%%%%%%%%%%%",
" 6789,,,,,,,,,,, 6789,,,,,,,,,,, 6789,,,,,,,,,,, 6789,,,,,,,,,,,",
" 6789,,,,,,,,,,, 6789,,,,,,,,,,, 6789,,,,,,,,,,, 6789,,,,,,,,,,,",
" 67tr000000qw,,, 67tr000000qw,,, 67tr000000qw,,, 67tr000000qw,,,",
" 67ip888888yu,,, 67ip888888yu,,, 67ip888888yu,,, 67ip888888yu,,,",
" 67aaaaaaaa89,,, 67aaaaaaaa89,,, 67aaaaaaaa89,,, 67aaaaaaaa89,,,",
"                                                                ",
"........ o#$@........... o#$@........... o#$@........... o#$@...",
"%%%%%%%% #:>;%%%%%%%%%%% #:>;%%%%%%%%%%% #:>;%%%%%%%%%%% #:>;%%%",
",,,,,,,, 6789,,,,,,,,,,, 6789,,,,,,,,,,, 6789,,,,,,,,,,, 6789,,,",
",,,,,,,, 6789,,,,,,,,,,, 6789,,,,,,,,,,, 6789,,,,,,,,,,, 6789,,,",
"000qw,,, 67tr000000qw,,, 67tr000000qw,,, 67tr000000qw,,, 67tr000",
"888yu,,, 67ip888888yu,,, 67ip888888yu,,, 67ip888888yu,,, 67ip888",
"aaa89,,, 67aaaaaaaa89,,, 67aaaaaaaa89,,, 67aaaaaaaa89,,, 67aaaaa",
"                                                                ",
" o#$@........... o#$@........... o#$@........... o#$@...........",
" #:>;%%%%%%%%%%% #:>;%%%%%%%%%%% #:>;%%%%%%%%%%% #:>;%%%%%%%%%%%",
" 6789,,,,,,,,,,, 6789,,,,,,,,,,, 6789,,,,,,,,,,, 6789,,,,,,,,,,,",
" 6789,,,,,,,,,,, 6789,,,,,,,,,,, 6789,,,,,,,,,,, 6789,,,,,,,,,,,",
" 67tr000000qw,,, 67tr000000qw,,, 67tr000000qw,,, 67tr000000qw,,,",
" 67ip888888yu,,, 67ip888888yu,,, 67ip888888yu,,, 67ip888888yu,,,",
" 67aaaaaaaa89,,, 67aaaaaaaa89,,, 67aaaaaaaa89,,, 67aaaaaaaa89,,,"
};
