/* XPM */
static char *_efabf14241d4a9dd858c75d4cf9f075EmPUags9lm8LdMum[] = {
/* columns rows colors chars-per-PIxel */
"64 64 32 1 ",
"  c #000D0E",
". c #011416",
"X c #011315",
"o c #000E10",
"O c #000E0F",
"+ c #011414",
"@ c #011515",
"# c #011413",
"$ c #053742",
"% c #05323C",
"& c #011518",
"* c #053C32",
"= c #06413A",
"- c #053841",
"; c #053930",
": c #064139",
"> c #06404E",
", c #063A46",
"< c #01171A",
"1 c #06473B",
"2 c #074C44",
"3 c #07424D",
"4 c #011615",
"5 c #064338",
"6 c #074D43",
"7 c #06424D",
"8 c #06434C",
"9 c #07454B",
"0 c #074E42",
"q c #06454B",
"w c #074E43",
"e c #074F41",
/* PIxels */
"                                                                ",
".........XoO+@.......... O#@............ O#@............ O#@....",
"$$$$$$$$$%&#*=-$$$$$$$$$ #;:-$$$$$$$$$$$ #;:-$$$$$$$$$$$ #;:-$$$",
">>>>>>>>>,<@123>>>>>>>>> 4567>>>>>>>>>>> 4567>>>>>>>>>>> 4567>>>",
">>>>>>>>>,<@123>>>>>>>>> 4567>>>>>>>>>>> 4567>>>>>>>>>>> 4567>>>",
"8888>>>>>,<@16988888>>>> 450q8888888>>>> 450q8888888>>>> 450q888",
"www27>>>>,<@1ewwwww27>>> 45ewwwwwww27>>> 45ewwwwwww27>>> 45ewwww",
"eee67>>>>,<@1eeeeee67>>> 45eeeeeeee67>>> 45eeeeeeee67>>> 45eeeee",
"                                                                ",
" O#@............ O#@............ O#@............ O#@............",
" #;:-$$$$$$$$$$$ #;:-$$$$$$$$$$$ #;:-$$$$$$$$$$$ #;:-$$$$$$$$$$$",
" 4567>>>>>>>>>>> 4567>>>>>>>>>>> 4567>>>>>>>>>>> 4567>>>>>>>>>>>",
" 4567>>>>>>>>>>> 4567>>>>>>>>>>> 4567>>>>>>>>>>> 4567>>>>>>>>>>>",
" 450q8888888>>>> 450q8888888>>>> 450q8888888>>>> 450q8888888>>>>",
" 45ewwwwwww27>>> 45ewwwwwww27>>> 45ewwwwwww27>>> 45ewwwwwww27>>>",
" 45eeeeeeee67>>> 45eeeeeeee67>>> 45eeeeeeee67>>> 45eeeeeeee67>>>",
"                                                                ",
"........ O#@............ O#@............ O#@............ O#@....",
"$$$$$$$$ #;:-$$$$$$$$$$$ #;:-$$$$$$$$$$$ #;:-$$$$$$$$$$$ #;:-$$$",
">>>>>>>> 4567>>>>>>>>>>> 4567>>>>>>>>>>> 4567>>>>>>>>>>> 4567>>>",
">>>>>>>> 4567>>>>>>>>>>> 4567>>>>>>>>>>> 4567>>>>>>>>>>> 4567>>>",
"8888>>>> 450q8888888>>>> 450q8888888>>>> 450q8888888>>>> 450q888",
"www27>>> 45ewwwwwww27>>> 45ewwwwwww27>>> 45ewwwwwww27>>> 45ewwww",
"eee67>>> 45eeeeeeee67>>> 45eeeeeeee67>>> 45eeeeeeee67>>> 45eeeee",
"                                                                ",
" O#@............ O#@............ O#@............ O#@............",
" #;:-$$$$$$$$$$$ #;:-$$$$$$$$$$$ #;:-$$$$$$$$$$$ #;:-$$$$$$$$$$$",
" 4567>>>>>>>>>>> 4567>>>>>>>>>>> 4567>>>>>>>>>>> 4567>>>>>>>>>>>",
" 4567>>>>>>>>>>> 4567>>>>>>>>>>> 4567>>>>>>>>>>> 4567>>>>>>>>>>>",
" 450q8888888>>>> 450q8888888>>>> 450q8888888>>>> 450q8888888>>>>",
" 45ewwwwwww27>>> 45ewwwwwww27>>> 45ewwwwwww27>>> 45ewwwwwww27>>>",
" 45eeeeeeee67>>> 45eeeeeeee67>>> 45eeeeeeee67>>> 45eeeeeeee67>>>",
"                                                                ",
"........ O#@............ O#@............ O#@............ O#@....",
"$$$$$$$$ #;:-$$$$$$$$$$$ #;:-$$$$$$$$$$$ #;:-$$$$$$$$$$$ #;:-$$$",
">>>>>>>> 4567>>>>>>>>>>> 4567>>>>>>>>>>> 4567>>>>>>>>>>> 4567>>>",
">>>>>>>> 4567>>>>>>>>>>> 4567>>>>>>>>>>> 4567>>>>>>>>>>> 4567>>>",
"8888>>>> 450q8888888>>>> 450q8888888>>>> 450q8888888>>>> 450q888",
"www27>>> 45ewwwwwww27>>> 45ewwwwwww27>>> 45ewwwwwww27>>> 45ewwww",
"eee67>>> 45eeeeeeee67>>> 45eeeeeeee67>>> 45eeeeeeee67>>> 45eeeee",
"                                                                ",
" O#@............ O#@............ O#@............ O#@............",
" #;:-$$$$$$$$$$$ #;:-$$$$$$$$$$$ #;:-$$$$$$$$$$$ #;:-$$$$$$$$$$$",
" 4567>>>>>>>>>>> 4567>>>>>>>>>>> 4567>>>>>>>>>>> 4567>>>>>>>>>>>",
" 4567>>>>>>>>>>> 4567>>>>>>>>>>> 4567>>>>>>>>>>> 4567>>>>>>>>>>>",
" 450q8888888>>>> 450q8888888>>>> 450q8888888>>>> 450q8888888>>>>",
" 45ewwwwwww27>>> 45ewwwwwww27>>> 45ewwwwwww27>>> 45ewwwwwww27>>>",
" 45eeeeeeee67>>> 45eeeeeeee67>>> 45eeeeeeee67>>> 45eeeeeeee67>>>",
"                                                                ",
"........ O#@............ O#@............ O#@............ O#@....",
"$$$$$$$$ #;:-$$$$$$$$$$$ #;:-$$$$$$$$$$$ #;:-$$$$$$$$$$$ #;:-$$$",
">>>>>>>> 4567>>>>>>>>>>> 4567>>>>>>>>>>> 4567>>>>>>>>>>> 4567>>>",
">>>>>>>> 4567>>>>>>>>>>> 4567>>>>>>>>>>> 4567>>>>>>>>>>> 4567>>>",
"8888>>>> 450q8888888>>>> 450q8888888>>>> 450q8888888>>>> 450q888",
"www27>>> 45ewwwwwww27>>> 45ewwwwwww27>>> 45ewwwwwww27>>> 45ewwww",
"eee67>>> 45eeeeeeee67>>> 45eeeeeeee67>>> 45eeeeeeee67>>> 45eeeee",
"                                                                ",
" O#@............ O#@............ O#@............ O#@............",
" #;:-$$$$$$$$$$$ #;:-$$$$$$$$$$$ #;:-$$$$$$$$$$$ #;:-$$$$$$$$$$$",
" 4567>>>>>>>>>>> 4567>>>>>>>>>>> 4567>>>>>>>>>>> 4567>>>>>>>>>>>",
" 4567>>>>>>>>>>> 4567>>>>>>>>>>> 4567>>>>>>>>>>> 4567>>>>>>>>>>>",
" 450q8888888>>>> 450q8888888>>>> 450q8888888>>>> 450q8888888>>>>",
" 45ewwwwwww27>>> 45ewwwwwww27>>> 45ewwwwwww27>>> 45ewwwwwww27>>>",
" 45eeeeeeee67>>> 45eeeeeeee67>>> 45eeeeeeee67>>> 45eeeeeeee67>>>"
};
