/* XPM */
static char *door4[] = {
/* columns rows colors chars-per-PIxel */
"64 64 27 1 ",
"  c #141413",
". c #191B1D",
"X c #2F1C17",
"o c #0C3A00",
"O c #242A2B",
"+ c #382B2F",
"@ c #124A00",
"# c #1A6B00",
"$ c #146836",
"% c #744000",
"& c #383F40",
"* c #3F4748",
"= c #464D4F",
"- c #536265",
"; c #62797E",
": c #9F7315",
"> c #238F00",
", c #42D513",
"< c #00DB6D",
"1 c #B08A2E",
"2 c #C1B339",
"3 c #BADB00",
"4 c #7100DB",
"5 c #13D5A9",
"6 c #8C948F",
"7 c #889C9E",
"8 c #9FA7A1",
/* PIxels */
"===============&=&=&============&==========================&=&==",
"&&&&&&&&&&&&&&&&&&&&&&&&&&&&&&&&&&&&&&&&&&&&&&&&&&&&&&&&&&&&&&&&",
"&&&&&&&&&&&&&&&&&&&&&&&&&&&&&&&&&&&&&&&&&&&&&&&&&&&&&&&&&&&&&&&&",
"&&&+XXXXXX+X+X++++&&&&&XXXXXXXXXXXXXXX+X+X+X++++++++++&&&&&&&&&&",
"&&&X&&&&&&&&&&&&&&&&&&X&&&&&&&&&&&&&&&&&&&&&&&&&&&&&&&&&&&X&=&&&",
"&&&X&&&&&&&&&&&&&-&&&X&&&&&&&&&&&&&&&&&&&&&&&&&&&&&&&-&&&X&&=&&&",
"&&&X&&&&&&&&&&&&-&&&X&&&&&&&&&&&&&&&&&&&&&&&&&&&&&&&-&&&X&&&=&&&",
"===+===========;===+===============================-===+====-===",
"&&&X&&&&&&&&&&;&&&X&&&&&&&&&&&&&&&&&&&&&&&&&&&&&&&;&&&X&&&&&=&&&",
"===+=========;===+===============================;===+======-===",
"===+========;===+===============================-===+=======;===",
"===&=======;===+===============================;===+========-===",
"===+======;===+===============================;===+=========;===",
"===&=====;===+===============================;===+==========;===",
"===&====;===+===============================;===+===========;===",
"===&===;===&===============================;===&============;===",
"===&==-===&===============================;===&=============;===",
"===&=-===================================;=================-;===",
"==========------------;-;-;;;;;;;;;;;;;;-=====--;-;;;;;;;;;;====",
"================================================================",
"================================================================",
"================================================================",
"====+++++++++++++++++++&+&+&+&++++++++++++++++++++&+&&==========",
"===+&=====================================================&=-===",
"===+=================================================-===&==-===",
"===+==688888888886*==-77;;;--&-=====================-===&===-===",
"===+==88& &&8 8&88&==7======= =&===================-===&====-===",
"===+==888888888888&==7=O.. .= =&==================-===&=====-===",
"===+==88&8  &&8888&==;=#>,o@=.=&=================;===+======-===",
"===+==688888888886&==;=.   .= =&================;===+=======;===",
"===&==*&&&&&&&&&&&*==;=======.=+===============;===+========-===",
"===+=================-=4=5=,=.=&==============;===+=========;===",
"===&==68888886*======;=======O=+=============;===+==========;===",
"===&==88 &8&88&======-=<=3=$=O=+============;===&===========;===",
"===&==68888886&======-=======.=+===========;===&============;===",
"===&==*&&&&&&&*=======&&+++++X+&==========;===&=============;===",
"=========================================;=================-;===",
"=====------;-;-;;;;;;;;;;;;;;;;;;-;-;-;;-=====---;-;-;;;;;;;====",
"================================================================",
"================================================================",
"================================================================",
"====++++++&+&+&&&&=====&++++++++++++++++++++++++&+&+&&&&&&&=====",
"===+&=================+=========================================",
":::%:::::::::::::1:::%::::::::::::::::::::::::::::::::::::::1:::",
":::%::::::::::::1:::%:::::::::::::::::::::::::::::::::::::::1:::",
":::%:::::::::::2:::%::::::::::::::::::::::::::::::::::::::::2:::",
":::%::::::::::2:::%:::::::::::::::::::::::::::::::::::::::::1:::",
"===+=========;===+==========================================;===",
"===+========;===+===========================================-===",
"===&=======;===+============================================;===",
"===+======;===+=============================================;===",
"===&=====;===+==============================================;===",
"===&====;===+===============================================;===",
"===&===;===&================================================;===",
"===&==;===&=================================================;===",
"===&=-=====================================================-;===",
"==========------------;-;-;;;;;;;;;;;;;;;;;;;;;;-;-;;;;;;;;;====",
"================================================================",
"================================================================",
"================================================================",
"&&&&&&&&&&&&&&&&&&&&&&&&&&&&&&&&&&&&&&&&&&&&&&&&&&&&&&&&&&&&&&&&",
"&&&&&&&&&&&&&&&&&&&&&&&&&&&&&&&&&&&&&&&&&&&&&&&&&&&&&&&&&&&&&&&&",
"&&&&&&&&&&&&&&&&&&&&&&&&&&&&&&&&&&&&&&&&&&&&&&&&&&&&&&&&&&&&&&&&",
"+XXXXXX+X+X+++++XXX    X    + ++++++++++X+X++X+X+XXXXXX+X+X+++++"
};
