/* XPM */
static char *_ff7c36da0b44d84829785c3490eadaduYTWgNixXhm2o1gM[] = {
/* columns rows colors chars-per-PIxel */
"64 64 131 2 ",
"   c #2F4739",
".  c #2F4A3B",
"X  c #30473A",
"o  c #314A3B",
"O  c #364E40",
"+  c #394F42",
"@  c #375042",
"#  c #3B5345",
"$  c #3E5648",
"%  c #405447",
"&  c #405649",
"*  c #435A4C",
"=  c #485A4E",
"-  c #475D50",
";  c #495E52",
":  c #4C6155",
">  c #4F6559",
",  c #506457",
"<  c #52665A",
"1  c #556A5D",
"2  c #586C5F",
"3  c #576D60",
"4  c #5A6D61",
"5  c #5D7165",
"6  c #607267",
"7  c #64766A",
"8  c #66786D",
"9  c #697A6E",
"0  c #6C7E72",
"q  c #6F8175",
"w  c #718276",
"e  c #75857A",
"r  c #79877D",
"t  c #77887D",
"y  c #79897E",
"u  c #7D8D82",
"i  c #818F85",
"p  c #839187",
"a  c #859389",
"s  c #8A968C",
"d  c #8B988F",
"f  c #8E9B91",
"g  c #939E95",
"h  c #94A197",
"j  c #96A299",
"k  c #9AA69C",
"l  c #9CA89F",
"z  c #9FAAA1",
"x  c #A2ADA4",
"c  c #A5B0A7",
"v  c #A7B2A8",
"b  c #ADB6AE",
"n  c #AEB6AE",
"m  c #AAB4AB",
"M  c #AEB8AF",
"N  c #AFB9B0",
"B  c #B0B8B0",
"V  c #B6BDB5",
"C  c #B3BCB4",
"Z  c #B7C0B7",
"A  c #B6C0B7",
"S  c #B7C0B8",
"D  c #B7C1B9",
"F  c #BAC2BA",
"G  c #BDC3BC",
"H  c #BBC5BD",
"J  c #BEC7BE",
"K  c #BFC7BF",
"L  c #BCC3BB",
"P  c #C0C6BF",
"I  c #C0C8BF",
"U  c #C0C8C0",
"Y  c #C1C8C0",
"T  c #C2C9C1",
"R  c #C3CAC2",
"E  c #C3CBC3",
"W  c #C4CDC5",
"Q  c #C5CEC5",
"!  c #C4CCC4",
"~  c #C8CFC8",
"^  c #CAD2CA",
"/  c #CED6CE",
"(  c #CBD2CA",
")  c #D1D5CE",
"_  c #D0D5CE",
"`  c #D2D7D0",
"'  c #D3D7D0",
"]  c #D2D7D0",
"[  c #D3D8D1",
"{  c #D4DAD3",
"}  c #D5DAD3",
"|  c #D6DBD4",
" . c #D7DCD5",
".. c #D5DBD3",
"X. c #D9DED7",
"o. c #DADED7",
"O. c #D8DCD6",
"+. c #DBDED8",
"@. c #DCDFD9",
"#. c #DBDFD8",
"$. c #DCE2DA",
"%. c #DCE2DB",
"&. c #DEE2DB",
"*. c #E1E4DD",
"=. c #E2E4DE",
"-. c #E2E5DE",
";. c #E3E6E0",
":. c #E7E7E2",
">. c #E5E7E1",
",. c #E5E8E2",
"<. c #E6E8E2",
"1. c #E6E9E3",
"2. c #E4EAE2",
"3. c #E6EAE3",
"4. c #EAEDE7",
"5. c #E9ECE5",
"6. c #EDEEE8",
"7. c #EFF2EB",
"8. c #EFF2EC",
"9. c #EEF2EB",
"0. c #F2F1EC",
"q. c #F1F3ED",
"w. c #F4F3EE",
"e. c #F3F4EE",
"r. c #F3F5EF",
"t. c #F5F5EF",
"y. c #F2F4EE",
"u. c #F5F7F1",
"i. c #F5F6F0",
"p. c #F7F9F3",
"a. c #F8F8F3",
/* PIxels */
"o o W +.O . o . . . O n =.X . . # w o . * G k o . - t o o o z :.1 o . 0 c + o i 0.0 o . . o . o 9 w.u . o . 0 * o . u +.o o o 9 ",
". o 5 1 . o . . . . o : w . . . o o o . . $ $ . o . . . X . O 5 O . . . . . . - t o . . . o . . + y * . o . o . . . o ; o o o o ",
". . . . . . . . . . o o o o . . . . . . . o . . o . . . . . o o . . . . X o . . . . . . . . . . . o X o . . o X o o . . . . . o ",
". . o . o . . . . o . . . . . . . . . o . . . . . . . . . . o o . . . . . . . o o . . . . . . o o . . . . . . . . . . o . .   . ",
"4 < o o # v h o o o & @ . o 4 z & . . $ @ . o o x B $ o o X o o X i K $ . - 6 O . o u V * . . @ * . o # x 9 . o o * . . . 8 } 9 ",
"1.[ @ o # n z . o o | x . o w 4.7 . O Y g o . o y k $ o * j ; . o a z O . z i.6 . . u Y - . o k ] & . & +.c . . a ;.* . . : n 6 ",
"< 1 . o .   . . o o E f o . . X . . o v a o . . o o o . 8 i.i o . o . . . # 8 o . . o   . o . a Y # o . o . . . 0 | & . o . o o ",
"o . o . . . o X . o .   . . . . o o o . . . . . . . . . . * o o . . o . . . . o . . . o o . . . . . . . . o . o . . . . . . o o ",
". . . .   o . . o . . . . . . o . .   o . . o . . . . . . . o o . o o . . . . . . . . . o . . . . . . . . . . . . o . . . . . . ",
". . . o o . $ 1 o . o . . . o . o . . . + 2 o . o o . . o . & < o . o . . . . . . . . o 3 # o . . . . . . . o . . o : & . . . o ",
"o 1 a o o   F @.* . . & t O o . y ^ # o f t.2 . o o w < . . ^ $.* . O 5 - . + s > . o 5 q.a o . o 0 5 . . # %.q . X 1.l o o . < ",
". u q.; o . : 8 o o . u u.: . o e F @ . 4 a # . o & } k . o 4 9 o o 4 8.x . - ;.k o . O w # o . = 1.F o o # / 8 . . p < . o o h ",
". @ < o .   . . o . . & 5 o . . o O . o . . . . . o 6 = . . o . . o O w ; . o ; $ . . . o . . . o 5 = . . . o o o o . o . . . - ",
". . o o . . . o . . . o . . . o . . . o . . . . o . . . o . . o . . o . . . . . . . o o . .   . . o . . . . o o . . . . . . . . ",
". . . . O . o o o . . o . o o . . o . o . . o - o . . . . . o . $ O . o . . . . . O o o . o . . . . . . o o o . . o . . # # . . ",
"$ . o t ] 5 o o o : o . o H d o . O < o o o 2 1.d . o . o o . - ] z . o e 5 . . o W h + . . ; # . . 8 D # . . ; # . . . J U # . ",
"w o o 8 ^ 2 . . 9 $.& . X  .J . . q &.3 . . & B e . . w p @ . * A t . #  .F o . o C h o o # Q p o . q 3.: . & ^ j . o o p l o o ",
"o . o .   . . . < N + . o o o o . < C ; o . . . . . . m ) * . . o . . . ; * . . . . . . o o l 6 . . . o o . o x r . . . . . o o ",
"o . . . . o o . . . . . . . . . o . . . . . . . o . o o # . o o . . . . . . . . . . . . o . o . . . . . . . . . o . . . . . o o ",
". . . . . . . o . o . . . . o . . . . o o . . . . . . o o o . . . . o . . . . . o . o . . o . . o . . . o . o . . . . . . . . . ",
". O < o . X d x + o . # O . o : N 6 . o # $ . . o > 1 . o # h w . . o @ o o o > $ . . : F 2 o . o $ . . . s j o o o & o o . & 5 ",
". q 4.< o . n V # . $ m u o . 7 } 7 o . g V @ . + ] } o . * &.m .   # m f . & O.c . . 5 / 8 . . w F o . o M x o . = ^ 2 o . g t.",
". - t O . . o o . . # z y . . o # . o o a x o o o 8 1 . . . $ O . o o j h . o q < o . . o o . o 9 M . . o o @ . . = C > . . > 9 ",
". . o . . . . o o . . . . o . . . o . . . . o o . o o o o o o . . . o o o o o . o . . . o o o o . o . . . . o o . . . . . . o o ",
". . . . . . . . X . o o . . o X . o . . . . . . . . . . . o - # . o o . . o o . o o o o o o o o o . . . o o o . . . o . . . . . ",
"o 1 * o . . . . . . * B 0 . . o @ o o . n g . . . . o . . < 3.c o . o o . . $ 2 o o o o . . o o r c   . o o o o . 7 L & . . o o ",
"4 -.x X . $ c 0 . . < 5.g . . y ) ; o o 1.F . o   9 k o . & n e . . 7 c = @ c -.o o . q k o o o x  .. . * F a o . k 5.; . . * g ",
"$ u < . . < O.g . o . - @ . . u Y # . o * & . . . C +.$ o o o . o . y %.7 o 5 w . . . k I # o o # * . . ; F 9 . . o : . . . q *.",
". . . . o o # o . . . . . . . . o o o o o . . . . # $ o o . . . . . o $ o . . . . . . o o o . o . . . . . o . . . . o . . . o * ",
". . . . . . .   o . o . . o . . . o . o . . . . . . . . o . . . . o o o . o . . . . . . o . o o o . . . . . . . . o . o . . . o ",
"o o . . . . . . < v o . . . . o . . O v 3 o . . o . . . X o o o a M . . o o o . . . o o o o z 1 . . . . . . . . t c o o . . . o ",
") ; . O 9 $ . . x 5.O . . $ u # . . & $.i o . 7 k # . # / ~ o O ! _ o o 9 q.a . . 4 < o o > 5.w o . . q 2 . . . c 2.@ o o v 2 . ",
"u O . 8 u.p . . # : . . . 4 p.w o . o ; @ . o e +.: . O t u . o $ # o . $ d < . o _ ^ & o o 1 o o o . ^ F @ o . # : . o @ O.p o ",
". . . . 4 @ . o o . . o . o 4 + . . . . o X . . . . . . . . . o . . . . . . o o . = : . . o . . o o . ; : o . o o o . . o o . o ",
". . . o o . o . o o .   . . . o o . . o o o . . . . o . . . o . . o o o . . . . . . . . o o o . . . o . . o . . . . . . . o . . ",
". . . o . o . : O o . o . . . . o o . . o o o o . o o . . . . . . . . . . o o o . . o o & * o . . . . . o o o o o . . . . o o o ",
". . X o o o 1 6.g . . . . . . . 8 I # o o : # . o q ( = . o o o . o . > t o o o o o . . ^ } * o . o o . o o ~ e . . # - . o # C ",
". o n  .o o o 8 * . O x I X . . 4 A $ o ; $.v o . 7 I $ . . k 5., . . l *.; . q 4.9 . o < 5 o o 6 $.7 . o o A w o . g 9.o o + x ",
". o z h o o . . . o o p V . . . . o . . o y 0 o . . o . . . 8 x * . . o < o . 7 J > . o o . . . < I 7 o o . o o . . < h o . . . ",
"o o . o o . . . . . . . . . . . o . . . . . . . . o o . . o o . . . o . . . o o o . . . . . . . o . o o o o . . . . . . o o . . ",
". . o . . . . . . . . o o . . . . . . . . . . . . . . o . . . . . . . . o . o . . . . . o o . . . o o o o o . . . . . o o . . . ",
"O O . . o 0 1 . o o . o o o & 4 o o . . . . . o 0 q o . . . . o . < p o o o # . o . , q o o . o . . o o 6 * . . . . . o . : d = ",
"( V # o & $.[ . o o l e . o p 9.8 . o f 0 o . o m $.: . o < o o   C $.# . d _ 2 . . c r.1 o o q z O o ; 1.v o . 5 n O o o 9 r.p ",
"n v O . o 6 3 o o o 9.C . . : j ; . @ ) x o . o = , . . 5 %.y o o : 1 o o t Q > . . = q o . o v ;.* o + d 0 . o f a.: o o @ 4 # ",
". o . X . . o . . o : & . . . . . o . ; # . . . . . o . # s * . . . . o . . o . o . . o o . . # < . o . . . . o + 1 o . o . . . ",
". o . . . o . o o . . . . o . . o o . . o o o . o . . . o o . o o . . . . o o . . . o . . . . . . . . o o o . . o . o . o . . o ",
". . o . . . . . . . o o o . . o . . . . . . . o . o . o o o . . . . o o . o . . . o o . . o . o . . . . . . o . o . . . . . . o ",
"o @ ; . .   x W % . o o * . . o < d O . w } > . o o & @ .   c Q # o . @ o . o : o o . 1 | e o o . $ # . o o j : . o F s . o . O ",
"o y O.* o . a v # o o 7 / * o o d $.$ . i ~ ; . o @ L p o . l b # . - C y . * $.u . . : F 8 . . # F l . . * i.u . . W u . o . u ",
". : h @ . . o . . . . 6 x @ o . $ 1 o . o o . . . @ z 0 o . . . . . : A e o o s 7 . . . . . . . # c e . o . 4 O . . o o . . . q ",
"o . o . . . . . . . o . . . . o . . . . o o o . o . o o . . . . . . . o . . . o . . . . . . . . . . . . . . . . . . . o . . . . ",
". . . o o . . . . . . . . o . o o . . . o o . . . o o o . . . . o . . . . . . o . . . . . . . . . . . . . . o o . . . . . . o . ",
". . o : f & . . . . . . o e 1 . . . . . o . - C 5 o o o o o o @ j t .   @ o o o . p 6 o o . . . o . * t o o . o . . o . f d o . ",
"7 . o a u.0 . o = c @ . . 4.F . . < c = . . < r.j . o # = . . > 6.v o o F l o o o 1.C @ . o h 5 . o y 3.: . O g 0 . X . J  .# . ",
": . . . : o . . w ;.= . . 7 5 o o w 1.5 . . . O o o . Y 5.: . o * o o o a r . o o & # . o # ) a o . # e O . $ ] l . . o . O . . ",
". . o . . . o o o * . . . . o o o o * o . . . . o o . 1 8 o . . o o o o . . . . o . . . . . $ o . o . . . . . * # . . . . . . . ",
". . . o . . . . . . . . . . . . o . . . . o o . . . . . . o o . . . . . . . . . . . . o o . . . . . o . . . o . . . o . . . . o ",
". . . . o o @ : . . . . . . . o < o . . . . o . . . o o . o o o . . . . . . . . . . . . 2 o . . . . . . . $ = . . . . o . . o o ",
"o < c & o . !  .$ . @ 0 2 . . 9 9.t . o 6 e o . o k z . o & 5.N . o o q 2 o o j w . . 8 7.e . . : e o o o J J o . o i * o o 9 C ",
". 6 L = . . : : o . * [ l . . # 7 @ o . V } # . o x h o o o q < . o $ { Q o # V a . . @ < @ o . d -.o . . 2 > . . 1 r.7 o o e C ",
". . . . . . . . . . . & @ . . . . . . . @ $ . . o o o . . . . . . . o o o o o o . . . . . . o . o * o . . . o . o o & o . . o o ",
"o . o . . . . . . . o o o . . . . . . o o o o . o o o . . o o . . . o . o o . o o . . . . . . . o o o o . . . . o o o o . . . . ",
". . . . . . o . . o o 0 : . . . . . . o 0 5 . . . . . . . & A y . . . . o o o o o o o o o o o o : 8 . . o . . o . % t o . . . o ",
"* m y . . . 5 & . o < 5.d o . > f # . . -.J . o . # > . . < r.m . o $ 5 o o t M o . o # 2 . o o x | . . o y 5 . . j 4.: . . o : "
};
