/* XPM */
static char *e1482bcf7d0740c8c5e49a643ce9d489LCIaUvfQGujUId4S[] = {
/* columns rows colors chars-per-PIxel */
"64 64 71 1 ",
"  c white",
". c #FBFBFB",
"X c #B2B2B2",
"o c #FEFEFE",
"O c #BCBCBC",
"+ c #F4F4F4",
"@ c #B7B7B7",
"# c gray95",
"$ c #CDCDCD",
"% c gray89",
"& c #D2D2D2",
"* c gray82",
"= c #DADADA",
"- c #E6E6E6",
"; c #C1C1C1",
": c #ECECEC",
"> c #EAEAEA",
", c gray99",
"< c gray91",
"1 c #F8F8F8",
"2 c #F9F9F9",
"3 c gray93",
"4 c #EFEFEF",
"5 c #F6F6F6",
"6 c #EEEEEE",
"7 c gray97",
"8 c gray72",
"9 c #FDFDFD",
"0 c gray77",
"q c gray75",
"w c gray92",
"e c #C3C3C3",
"r c #CECECE",
"t c gray86",
"y c LightGray",
"u c gray85",
"i c gray",
"p c #DDDDDD",
"a c #E4E4E4",
"s c #DFDFDF",
"d c gray98",
"f c gray90",
"g c gray78",
"h c gray83",
"j c #E7E7E7",
"k c #D8D8D8",
"l c gray79",
"z c #F3F3F3",
"x c #F1F1F1",
"c c #E9E9E9",
"v c #C5C5C5",
"b c #CACACA",
"n c gray87",
"m c #D7D7D7",
"M c gray94",
"N c gray96",
"B c gray88",
"V c #E2E2E2",
"C c gray70",
"Z c gray73",
"A c #C0C0C0",
"S c #CBCBCB",
"D c gray84",
"F c gainsboro",
"G c gray76",
"H c #D5D5D5",
"J c #D0D0D0",
"K c #E1E1E1",
"L c gray80",
"P c gray81",
"I c #C8C8C8",
/* PIxels */
"   .Xo      O      +@      #$      %&      *=      *-      ;:   ",
"                                                                ",
"                                                                ",
"-      o>      ,<      1>      23      #4      #5      67      <",
"8      90      7q      we      4r      ty      u-      r>      i",
"                                                                ",
"                                                                ",
"   op       a      .s      d>      +:      34      w5      f7   ",
"   ,Oo      g      5;      +h      ju      us      k>      l4   ",
"                                                                ",
"                                                                ",
"-       >      9j      2<      .6      z4      x5      61      c",
"qo     9l      7v      :b      6y      nm      nj      &w      0",
"                                                                ",
"                                                                ",
"   oa       c      ,-      .6      54      M#      47      >1   ",
"   ,Oo      g      N;      +y      jk      uB      m>      l6   ",
"                                                                ",
"                                                                ",
"B      of      ,V      7a      1>      4:      6+      >5      %",
"Co     ,q      5Z      cA      :S      k*      k%      Sj      Z",
"                                                                ",
"                                                                ",
"   9D       F      du      1a      Mj      j:      -z      p+   ",
"   .8o      G      +i      z*      fD      Hn      H<      v3   ",
"                                                                ",
"                                                                ",
"B      of      ,V      7a      2c      4w      6+      >5      %",
"S      oh      2J      xy      zF      fs      %:      t4      J",
"                                                                ",
"                                                                ",
"   ot       V      .p      2<      #w      w6      >N      V5   ",
"   ,So      y      1r      5p      :K      K-      B4      D#   ",
"                                                                ",
"                                                                ",
"D      op      .=      +F      5%      w-      cM      %z      =",
"ro     9D      dy      xD      +p      jK      -6      pM      y",
"                                                                ",
"                                                                ",
"   ,Lo      y      1P      5n      3V      Vj      K4      D#   ",
"   ,Go      L      5g      Nk      cF      F%      F:      rM   ",
"                                                                ",
"                                                                ",
"$      oH      dJ      xh      +p      fB      a3      FM      &",
"So     9y      2P      My      #t      as      %:      t4      P",
"                                                                ",
"                                                                ",
"   9y       =      2D      1V      4f      ->      f#      t+   ",
"   9J       m      1y      7B      6a      ac      %x      uz   ",
"                                                                ",
"                                                                ",
"h      o=      dm      zt      +K      ca      <4      Kx      m",
"I      o*      2L      M*      #=      %p      Vw      u4      $",
"                                                                ",
"                                                                ",
"   9L       H      1J      7n      3V      Vj      KM      D#   ",
"   ,lo      *      7r      5F      :B      B-      s6      h#   ",
"                                                                ",
"                                                                ",
"l      o*      2L      M*      z=      ap      Vw      =4      r",
"=      oB      .n      +B      5-      3<      w#      -+      n",
"                                                                ",
"                                                                ",
"   ,eo      $      7g      Nk      >F      p%      t3      PM   "
};
